<svg width="54" height="69" viewBox="0 0 54 69" fill="none" xmlns="http://www.w3.org/2000/svg">
<path d="M0 0H53.8866V41.2459C53.8866 56.1256 41.8236 68.2556 26.9427 68.2556C12.063 68.2556 0 56.1256 0 41.2459V0ZM26.9427 63.8775C39.3433 63.8775 49.5755 53.6453 49.5755 41.2459V4.31107H26.9427V63.8775ZM9.01096 25.1242V25.5057H12.4688V25.1242L11.8631 24.945C11.5779 24.8694 11.3914 24.728 11.3012 24.5184C11.2122 24.3088 11.1671 24.0467 11.1671 23.7322V13.9205L19.8258 25.5057H21.0825V12.6188C21.0825 12.3189 21.1129 12.0642 21.1727 11.8545C21.2482 11.6303 21.4274 11.473 21.7114 11.3828L22.2733 11.2268V10.7771H18.9275V11.2268L19.6016 11.3828C19.9002 11.4584 20.0952 11.6083 20.1854 11.8326C20.2902 12.0569 20.3426 12.3189 20.3426 12.6188V20.9484L12.7833 10.7771H8.94393V11.2268L9.34859 11.5181C9.52776 11.6522 9.67036 11.7729 9.77518 11.8777C9.88 11.9825 9.97751 12.1093 10.0665 12.2592C10.1713 12.3933 10.292 12.6029 10.426 12.8869V23.7554C10.426 24.054 10.3663 24.3088 10.2469 24.5184C10.1421 24.728 9.94704 24.8694 9.66305 24.945L9.01096 25.1242ZM11.5852 51.7975V51.5062L11.0915 51.349C10.7625 51.2295 10.5747 51.065 10.5297 50.8553C10.4858 50.6457 10.515 50.3763 10.6198 50.0472L11.5852 47.1951H16.5471L17.4905 50.0923C17.5953 50.4202 17.61 50.6981 17.5356 50.9224C17.4759 51.1466 17.2809 51.3112 16.9518 51.416L16.5703 51.5281V51.7975H22.2733V51.5281L21.9357 51.4392C21.6066 51.3343 21.3677 51.199 21.2178 51.0345C21.0678 50.8553 20.9338 50.6006 20.8131 50.2715L16.3009 37.0019H14.4373L9.90194 50.1813C9.79712 50.4958 9.65452 50.7432 9.47535 50.9224C9.3108 51.1015 9.07069 51.2368 8.75622 51.327L8.15045 51.5062V51.7975H11.5852ZM14.1448 39.7857L16.3448 46.5443H11.8107L14.1448 39.7857ZM26.9427 29.8167H7.90303V32.6908H26.9427V29.8167ZM36.0146 24.9901C36.3144 24.8853 36.5095 24.75 36.5984 24.5854C36.7033 24.4063 36.7557 24.1588 36.7557 23.8444V12.5054C36.7557 12.1922 36.7033 11.9521 36.5984 11.7875C36.5095 11.6083 36.3144 11.4657 36.0146 11.3609L35.5661 11.2268V10.7771H40.9534V11.2268L40.5048 11.3609C40.2196 11.4657 40.0258 11.6083 39.921 11.7875C39.8162 11.9521 39.7638 12.1922 39.7638 12.5054V23.8444C39.7638 24.1588 39.8162 24.4063 39.921 24.5854C40.0258 24.75 40.2196 24.8853 40.5048 24.9901L40.9534 25.1242V25.5057H35.5661V25.1242L36.0146 24.9901ZM35.6099 51.0686C36.2389 50.9346 36.5533 50.5677 36.5533 49.9692V40.6962C36.5533 39.648 36.5448 38.5998 36.5302 37.5528H34.7567C34.2777 37.5528 33.9255 37.6796 33.7012 37.9343C33.477 38.1878 33.2527 38.5474 33.0272 39.0118L32.2423 40.673H31.6133L31.7706 37.0019H44.8379L44.9049 40.673H44.276L43.491 39.0118C43.2668 38.5474 43.0413 38.1878 42.817 37.9343C42.5927 37.6796 42.2405 37.5528 41.7627 37.5528H39.9661V49.9692C39.9661 50.5823 40.2806 50.9492 40.9083 51.0686L41.8297 51.2478V51.7195H34.7117V51.2478L35.6099 51.0686ZM45.9824 29.8167H26.9427V32.6908H45.9824V29.8167Z" fill="#991B1B"/>
</svg>
